# AST/ASF file generated using VICON BodyLanguage
# -----------------------------------------------
:version 1.10
:name VICON
:units
  mass 1.0
  length 0.45
  angle deg
:documentation
   .ast/.asf automatically generated from VICON data using
   VICON BodyBuilder and BodyLanguage model FoxedUp or BRILLIANT.MOD
:root
   order TX TY TZ RX RY RZ
   axis XYZ
   position 0 0 0  
   orientation 0 0 0 
:bonedata
  begin
     id 1 
     name lhipjoint
     direction 0.682418 -0.694059 0.22932 
     length 2.25561 
     axis 0 0 0  XYZ
  end
  begin
     id 2 
     name lfemur
     direction 0.34202 -0.939693 0  
     length 6.96448  
     axis 0 0 20  XYZ
    dof rx ry rz
    limits (-160.0 20.0)
           (-70.0 70.0)
           (-60.0 70.0)
  end
  begin
     id 3 
     name ltibia
     direction 0.34202 -0.939693 0   
     length 6.88553   
     axis 0 0 20   XYZ
    dof rx
    limits (-10.0 170.0)
  end
  begin
     id 4 
     name lfoot
     direction 0.0723587 -0.198804 0.977364   
     length 1.88518   
     axis -90 7.62852e-016 20   XYZ
    dof rx rz
    limits (-45.0 90.0)
           (-70.0 20.0)
  end
  begin
     id 5 
     name ltoes
     direction 1.53558e-011 -4.21962e-011 1   
     length 0.952124   
     axis -90 7.62852e-016 20   XYZ
    dof rx
    limits (-90.0 20.0)
  end
  begin
     id 6 
     name rhipjoint
     direction -0.657603 -0.71533 0.236348   
     length 2.18854  
     axis 0 0 0  XYZ 
  end
  begin
     id 7 
     name rfemur
     direction -0.34202 -0.939693 0   
     length 6.86686   
     axis 0 0 -20   XYZ
    dof rx ry rz
    limits (-160.0 20.0)
           (-70.0 70.0)
           (-70.0 60.0)
  end
  begin
     id 8 
     name rtibia
     direction -0.34202 -0.939693 0   
     length 6.59503   
     axis 0 0 -20   XYZ
    dof rx
    limits (-10.0 170.0)
 end
 begin
     id 9 
     name rfoot
     direction -0.101977 -0.280179 0.954516   
     length 1.93723  
     axis -90 -7.62852e-016 -20   XYZ
    dof rx rz
    limits (-45.0 90.0)
           (-20.0 70.0)
  end
  begin
     id 10 
     name rtoes
     direction -1.53564e-011 -4.21897e-011 1   
     length 0.970315   
     axis -90 -7.62852e-016 -20   XYZ
    dof rx
    limits (-90.0 20.0)
  end
  begin
     id 11 
     name lowerback
     direction -0.0339559 0.999421 -0.00235966   
     length 1.88543   
     axis 0 0 0   XYZ
    dof rx ry rz
    limits (-20.0 45.0)
           (-30.0 30.0)
           (-30.0 30.0)
  end
  begin
     id 12 
     name upperback
     direction 0.00401003 0.999739 0.0224689   
     length 1.8856   
     axis 0 0 0   XYZ
    dof rx ry rz
    limits (-20.0 45.0)
           (-30.0 30.0)
           (-30.0 30.0)
  end
  begin
     id 13 
     name thorax
     direction 0.0198619 0.999546 0.0226536   
     length 1.88352   
     axis 0 0 0   XYZ
    dof rx ry rz
    limits (-20.0 45.0)
           (-30.0 30.0)
           (-30.0 30.0)
  end
  begin
     id 14 
     name lowerneck
     direction -0.0461848 0.998632 0.0245198   
     length 1.34895   
     axis 0 0 0   XYZ
    dof rx ry rz
    limits (-20.0 45.0)
           (-30.0 30.0)
           (-30.0 30.0)
  end
  begin
     id 15 
     name upperneck
     direction -0.0180627 0.994724 -0.100984   
     length 1.35214   
     axis 0 0 0   XYZ
    dof rx ry rz
    limits (-20.0 45.0)
           (-30.0 30.0)
           (-30.0 30.0)
  end
  begin
     id 16
     name head
     direction -0.00374772 0.999293 -0.037403  
     length 1.3568  
     axis 0 0 0   XYZ
    dof rx ry rz
    limits (-20.0 45.0)
           (-30.0 30.0)
           (-30.0 30.0)
  end
  begin
     id 17 
     name lclavicle
     direction 0.971773 0.191119 0.138311  
     length 2.84954  
     axis 0 0 0   XYZ
    dof ry rz
    limits (-20.0 10.0)
           (0.0 20.0)
  end
  begin
     id 18 
     name lhumerus
     direction 1 -4.4897e-011 -2.43761e-027   
     length 4.40919   
     axis 180 -30 -90   XYZ
    dof rx ry rz
    limits (-60.0 90.0)
           (-90.0 90.0)
           (-90.0 90.0)
  end
  begin
     id 19
     name lradius
     direction 1 -4.4896e-011 -9.1621e-027   
     length 3.03857   
     axis 180 -30 -90   XYZ
    dof rx
    limits (-10.0 170.0)
  end
  begin
     id 20
     name lwrist
     direction 1 -4.4896e-011 -1.41363e-026   
     length 1.51928   
     axis 1.07133e-014 90 90   XYZ
    dof ry
    limits (-180.0 0.0)
 end
  begin
     id 21 
     name lhand
     direction 1 -4.48978e-011 -2.82725e-026   
     length 0.523208   
     axis 1.80403e-014 90 90   XYZ
    dof rx rz
    limits (-90.0 90.0)
           (-45.0 45.0)
  end
  begin
     id 22 
     name lfingers
     direction 1 -4.48977e-011 -5.6545e-026   
     length 0.421824   
     axis 3.60806e-014 90 90   XYZ
    dof rx
    limits (0.0 90.0)
  end
  begin
     id 23
     name lthumb
     direction 0.707107 -6.34962e-011 0.707107   
     length 0.605657   
     axis -90 45 2.85299e-015   XYZ
    dof rx rz
    limits (-45.0 45.0)
           (-45.0 45.0)
  end
  begin
     id 24 
     name rclavicle
     direction -0.957247 0.24311 0.156766   
     length 3.12406  
     axis 0 0 0   XYZ 
    dof ry rz
    limits (-10.0 20.0)
           (-20.0 0.0)
  end
  begin
     id 25 
     name rhumerus
     direction -1 -4.48964e-011 -1.70632e-027  
     length 4.61969   
     axis 180 30 90   XYZ
    dof rx ry rz
    limits (-90.0 60.0)
           (-90.0 90.0)
           (-90.0 90.0)
  end
  begin
     id 26 
     name rradius
     direction -1 -4.48966e-011 -6.60395e-027   
     length 3.09382   
     axis 180 30 90   XYZ
    dof rx
    limits (-10.0 170.0)
  end
  begin
     id 27 
     name rwrist
     direction -1 -4.48963e-011 -1.41363e-026   
     length 1.54691   
     axis 1.07133e-014 -90 -90   XYZ
    dof ry
    limits (-180.0 0.0)
  end
  begin
     id 28
     name rhand
     direction -1 -4.49013e-011 -2.82725e-026   
     length 0.500896   
     axis 1.80403e-014 -90 -90   XYZ
    dof rx rz
    limits (-90.0 90.0)
           (-45.0 45.0)
  end
  begin
     id 29
     name rfingers
     direction -1 -4.48902e-011 -5.6545e-026   
     length 0.403835   
     axis 3.60806e-014 -90 -90   XYZ
    dof rx
    limits (0.0 90.0)
  end
  begin
     id 30
     name rthumb
     direction -0.707107 -6.34953e-011 0.707107   
     length 0.579829   
     axis -90 -45 -2.85299e-015   XYZ
    dof rx rz
    limits (-45.0 45.0)
           (-45.0 45.0)
  end
:hierarchy
  begin
    root lhipjoint rhipjoint lowerback
    lhipjoint lfemur
    lfemur ltibia
    ltibia lfoot
    lfoot ltoes
    rhipjoint rfemur
    rfemur rtibia
    rtibia rfoot
    rfoot rtoes
    lowerback upperback
    upperback thorax
    thorax lowerneck lclavicle rclavicle
    lowerneck upperneck
    upperneck head
    lclavicle lhumerus
    lhumerus lradius
    lradius lwrist
    lwrist lhand lthumb
    lhand lfingers
    rclavicle rhumerus
    rhumerus rradius
    rradius rwrist
    rwrist rhand rthumb
    rhand rfingers
  end

#!OML:ASF E:\madness\Project 1\Capture day 1\Session 1\Female1.ASF
:FULLY-SPECIFIED
:DEGREES
146
root 29.741 15.9742 0.762107 -19.7529 -85.944 30.3946
lowerback -1.4667 0.224386 -3.90902
upperback -1.36749 0.329719 1.21919
thorax -0.612145 0.198293 3.44987
lowerneck 0.675284 9.80226 3.88956
upperneck 1.91439 13.3238 -13.1261
head 1.61833 6.53463 -4.26205
rclavicle 6.70898e-015 3.18055e-015
rhumerus -48.6908 14.4875 -74.8591
rradius 62.8453
rwrist 5.2144
rhand -6.01183 -49.499
rfingers 7.12502
rthumb 19.821 -78.5083
lclavicle 6.70898e-015 3.18055e-015
lhumerus -55.8697 -8.14279 74.2021
lradius 70.4398
lwrist -25.8639
lhand -23.2671 -26.701
lfingers 7.12502
lthumb 3.18515 3.25494
rfemur -8.82118 8.23083 22.8089
rtibia 21.6479
rfoot -28.8957 -24.3757
rtoes 21.9184
lfemur -41.0058 -6.36803 -16.2818
ltibia 50.3243
lfoot -10.7418 0.973272
ltoes 14.5375
147
root 29.8318 15.9685 0.760898 -17.6963 -85.6214 28.1608
lowerback -1.22311 0.195129 -3.93417
upperback -1.32424 0.283292 1.33342
thorax -0.701022 0.177358 3.58079
lowerneck 1.05186 9.7456 4.26157
upperneck 1.42687 13.2181 -13.7695
head 1.47286 6.50906 -4.54396
rclavicle -9.79014e-015 2.38542e-014
rhumerus -49.02 15.3361 -75.3227
rradius 62.9151
rwrist 5.13288
rhand -7.09067 -47.6048
rfingers 7.12502
rthumb 18.7836 -76.7178
lclavicle -9.79014e-015 2.38542e-014
lhumerus -55.8501 -8.93295 74.289
lradius 69.5885
lwrist -26.1929
lhand -22.7147 -25.8322
lfingers 7.12502
lthumb 3.71866 4.11514
rfemur -9.21119 8.01161 22.8115
rtibia 22.1333
rfoot -28.4256 -24.5911
rtoes 20.4424
lfemur -40.4316 -6.24845 -16.3841
ltibia 51.7272
lfoot -11.1496 0.643129
ltoes 13.0258
148
root 29.9307 15.9585 0.762509 -17.0477 -85.4921 27.5862
lowerback -1.02399 0.167217 -3.96496
upperback -1.42079 0.23729 1.43198
thorax -0.908615 0.161194 3.69909
lowerneck 1.04337 9.93334 4.25184
upperneck 1.5941 13.4906 -13.7971
head 1.54987 6.63714 -4.53334
rclavicle -4.32357e-015 -9.93923e-015
rhumerus -49.4098 16.3585 -75.8979
rradius 63.1566
rwrist 4.56277
rhand -6.88253 -47.5655
rfingers 7.12502
rthumb 18.9838 -76.6591
lclavicle -4.32357e-015 -9.93923e-015
lhumerus -55.8935 -9.3837 74.2496
lradius 68.8105
lwrist -26.3742
lhand -22.5345 -26.1199
lfingers 7.12502
lthumb 3.89264 3.82428
rfemur -9.98311 7.65037 22.6969
rtibia 22.7305
rfoot -28.3055 -24.2159
rtoes 20.3924
lfemur -40.1026 -5.86855 -16.5212
ltibia 52.9024
lfoot -11.2779 0.44792
ltoes 12.7962
149
root 30.0071 15.9607 0.766841 -20.132 -85.4006 30.7261
lowerback -1.15435 0.227462 -4.15506
upperback -1.41346 0.323447 1.35609
thorax -0.837024 0.204022 3.72867
lowerneck 0.898508 9.8753 4.44365
upperneck 1.70753 13.4303 -13.8448
head 1.61759 6.59906 -4.56729
rclavicle 3.47873e-016 1.19271e-015
rhumerus -49.788 17.1829 -76.5503
rradius 63.3409
rwrist 4.09698
rhand -6.8718 -47.3789
rfingers 7.12502
rthumb 18.9941 -76.4715
lclavicle 3.47873e-016 1.19271e-015
lhumerus -55.9289 -10.002 74.0953
lradius 68.0473
lwrist -26.4908
lhand -22.1312 -26.0007
lfingers 7.12502
lthumb 4.28209 3.93599
rfemur -10.6809 7.09938 22.2777
rtibia 23.4655
rfoot -28.4202 -23.4632
rtoes 20.8428
lfemur -39.4899 -5.36711 -16.9999
ltibia 53.8302
lfoot -11.4592 0.399192
ltoes 13.9594
150
root 30.0844 15.9656 0.767766 -20.04 -85.2327 30.7589
lowerback -1.34519 0.269368 -4.09969
upperback -1.47023 0.384691 1.26925
thorax -0.793031 0.233337 3.60866
lowerneck 0.861145 9.91105 4.64682
upperneck 1.79471 13.4956 -13.9808
head 1.67874 6.62693 -4.6298
rclavicle -5.61567e-015 3.18055e-015
rhumerus -50.2741 17.8344 -77.2654
rradius 63.4914
rwrist 3.90022
rhand -6.95919 -46.9835
rfingers 7.12502
rthumb 18.9101 -76.0843
lclavicle -5.61567e-015 3.18055e-015
lhumerus -56.0555 -10.81 73.8949
lradius 67.1714
lwrist -26.8093
lhand -22.1482 -25.9806
lfingers 7.12502
lthumb 4.26563 3.95639
rfemur -11.4446 6.79685 22.1126
rtibia 24.1155
rfoot -28.2367 -23.3396
rtoes 20.3297
lfemur -38.9826 -4.95307 -17.2104
ltibia 54.5362
lfoot -11.7156 0.251257
ltoes 15.4075
151
root 30.1779 15.9617 0.766897 -19.5197 -85.0101 30.1943
lowerback -1.02175 0.208294 -4.1231
upperback -1.52905 0.289697 1.27851
thorax -1.02641 0.192596 3.6295
lowerneck 0.655304 9.9451 4.69666
upperneck 1.88632 13.5523 -13.9753
head 1.74799 6.6444 -4.61874
rclavicle 9.0447e-015 3.18055e-015
rhumerus -50.5664 18.7686 -77.9336
rradius 63.5896
rwrist 3.75029
rhand -6.76342 -47.0727
rfingers 7.12502
rthumb 19.0983 -76.1551
lclavicle 9.0447e-015 3.18055e-015
lhumerus -56.2896 -11.252 73.682
lradius 66.4079
lwrist -27.0649
lhand -23.344 -26.5653
lfingers 7.12502
lthumb 3.11087 3.39174
rfemur -12.0538 6.8413 22.0281
rtibia 24.6456
rfoot -28.0437 -23.6479
rtoes 19.7569
lfemur -38.3937 -4.67313 -17.3247
ltibia 55.0042
lfoot -11.8247 0.138986
ltoes 16.4103
152
root 30.2348 15.9689 0.774101 -20.6879 -84.8646 31.2487
lowerback -1.19504 0.104031 -4.24357
upperback -1.39069 0.161359 1.32182
thorax -0.775587 0.121755 3.74276
lowerneck 0.692063 10.0192 5.01735
upperneck 1.76243 13.6553 -14.3426
head 1.76375 6.69953 -4.77421
rclavicle 1.12313e-014 1.59028e-015
rhumerus -50.7349 19.9199 -78.4933
rradius 63.7212
rwrist 3.50729
rhand -6.43415 -47.4303
rfingers 7.12502
rthumb 19.415 -76.4811
lclavicle 1.12313e-014 1.59028e-015
lhumerus -56.564 -11.4762 73.4834
lradius 65.8294
lwrist -27.2184
lhand -23.763 -26.4938
lfingers 7.12502
lthumb 2.7062 3.46875
rfemur -12.3189 6.64887 21.7975
rtibia 25.0567
rfoot -28.302 -23.3975
rtoes 20.5128
lfemur -37.4011 -4.44097 -17.5992
ltibia 55.2495
lfoot -12.1628 0.194037
ltoes 17.8624
153
root 30.3088 15.9804 0.777116 -22.9628 -84.6537 33.3924
lowerback -1.11722 0.0396584 -4.50923
upperback -1.28425 0.0764811 1.30983
thorax -0.702452 0.0782478 3.87998
lowerneck 0.509794 10.0237 4.97544
upperneck 1.68572 13.6533 -14.4095
head 1.7732 6.69277 -4.7793
rclavicle -7.35503e-015 -1.82882e-014
rhumerus -50.9767 20.9 -79.0193
rradius 63.9298
rwrist 3.2429
rhand -6.24806 -47.7998
rfingers 7.12502
rthumb 19.5939 -76.8325
lclavicle -7.35503e-015 -1.82882e-014
lhumerus -56.7722 -11.9242 73.341
lradius 65.2607
lwrist -27.4129
lhand -23.7598 -26.4613
lfingers 7.12502
lthumb 2.70936 3.50119
rfemur -12.6504 6.65646 21.4396
rtibia 25.4635
rfoot -28.5055 -23.3513
rtoes 21.496
lfemur -36.4399 -4.17361 -17.9902
ltibia 55.3232
lfoot -12.5049 0.191354
ltoes 18.8286
154
root 30.3893 15.9909 0.778429 -22.8539 -84.4052 33.2311
lowerback -0.963218 -0.024427 -4.60954
upperback -1.23389 -0.0139321 1.30925
thorax -0.728096 0.0338126 3.93562
lowerneck 0.343478 9.94133 5.01772
upperneck 1.62163 13.5352 -14.4139
head 1.77338 6.63087 -4.78529
rclavicle -7.95139e-015 3.97569e-015
rhumerus -51.2397 21.615 -79.5533
rradius 64.1159
rwrist 3.20781
rhand -6.03942 -48.4731
rfingers 7.12502
rthumb 19.7945 -77.4852
lclavicle -7.95139e-015 3.97569e-015
lhumerus -56.866 -12.5601 73.1923
lradius 64.5551
lwrist -27.5492
lhand -23.2357 -26.4103
lfingers 7.12502
lthumb 3.21553 3.5452
rfemur -13.0676 6.71786 21.2776
rtibia 25.77
rfoot -28.4258 -23.6171
rtoes 21.6179
lfemur -35.6518 -3.93274 -18.1668
ltibia 55.3008
lfoot -12.8674 0.191391
ltoes 18.1214
155
root 30.4569 15.9936 0.782178 -22.6217 -84.15 33.0188
lowerback -1.07008 -0.100443 -4.74351
upperback -1.20404 -0.109103 1.30671
thorax -0.627726 -0.0159596 4.00817
lowerneck 0.31875 9.93531 5.25078
upperneck 1.85232 13.5553 -14.3729
head 1.85987 6.63487 -4.79967
rclavicle -3.97569e-016 1.59028e-015
rhumerus -51.6724 22.2305 -80.1048
rradius 64.2739
rwrist 3.44145
rhand -6.25352 -48.3416
rfingers 7.12502
rthumb 19.5886 -77.3747
lclavicle -3.97569e-016 1.59028e-015
lhumerus -56.9552 -13.2613 73.0492
lradius 63.7424
lwrist -27.6949
lhand -23.0675 -26.2969
lfingers 7.12502
lthumb 3.37794 3.65604
rfemur -13.4829 6.77789 21.1086
rtibia 26.0002
rfoot -28.3588 -23.8119
rtoes 21.966
lfemur -34.9255 -3.80395 -18.3093
ltibia 55.2358
lfoot -13.2675 0.284574
ltoes 16.7818
156
root 30.5197 15.9922 0.792673 -22.2649 -83.9177 32.6409
lowerback -1.21514 -0.187443 -4.7852
upperback -1.20273 -0.218178 1.31169
thorax -0.533516 -0.0728826 4.03583
lowerneck 0.0456128 9.86129 4.89415
upperneck 1.91304 13.4443 -13.959
head 1.85827 6.57024 -4.61391
rclavicle 7.7526e-015 -7.95139e-015
rhumerus -52.2633 22.929 -80.6593
rradius 64.4545
rwrist 3.67206
rhand -6.77531 -47.2301
rfingers 7.12502
rthumb 19.0869 -76.3135
lclavicle 7.7526e-015 -7.95139e-015
lhumerus -57.2234 -13.9425 72.9875
lradius 63.0928
lwrist -27.9594
lhand -22.9602 -26.0279
lfingers 7.12502
lthumb 3.48156 3.92337
rfemur -13.7677 6.65187 20.9418
rtibia 26.1534
rfoot -28.253 -23.8157
rtoes 22.2899
lfemur -34.1155 -3.79542 -18.4342
ltibia 55.1398
lfoot -13.3789 0.2651
ltoes 19.3057
157
root 30.5764 16.0001 0.799626 -21.3871 -83.7494 31.7568
lowerback -1.46536 -0.307175 -4.82937
upperback -1.15845 -0.364798 1.40496
thorax -0.331421 -0.152126 4.15488
lowerneck 0.374994 9.855 5.12091
upperneck 1.80246 13.4325 -14.0377
head 1.79101 6.58313 -4.69264
rclavicle 1.22253e-014 -1.59028e-015
rhumerus -52.7739 23.5902 -81.0439
rradius 64.7973
rwrist 3.69641
rhand -6.76416 -46.7244
rfingers 7.12502
rthumb 19.0976 -75.8067
lclavicle 1.22253e-014 -1.59028e-015
lhumerus -57.4816 -14.4138 72.9524
lradius 62.3781
lwrist -28.6338
lhand -23.0321 -25.7221
lfingers 7.12502
lthumb 3.41209 4.23036
rfemur -14.0785 6.6217 20.8813
rtibia 26.3329
rfoot -28.103 -23.9782
rtoes 22.3448
lfemur -33.3771 -3.71542 -18.4713
ltibia 54.9723
lfoot -13.5611 0.327814
ltoes 21.1115
158
root 30.6359 16.0129 0.806414 -19.7302 -83.4699 30.1288
lowerback -1.67027 -0.494482 -4.87021
upperback -1.09304 -0.60344 1.54184
thorax -0.121728 -0.278197 4.3148
lowerneck 0.137559 9.907 4.77243
upperneck 1.90471 13.4997 -13.7164
head 1.82044 6.60541 -4.52705
rclavicle 6.95746e-015 -5.56597e-015
rhumerus -53.18 24.2204 -81.2864
rradius 65.1894
rwrist 3.52215
rhand -6.27896 -47.038
rfingers 7.12502
rthumb 19.5642 -76.0737
lclavicle 6.95746e-015 -5.56597e-015
lhumerus -57.6187 -14.7602 72.9111
lradius 61.5143
lwrist -29.5681
lhand -23.4384 -25.3612
lfingers 7.12502
lthumb 3.01969 4.59714
rfemur -14.4314 6.58493 20.8685
rtibia 26.4748
rfoot -27.8569 -24.3614
rtoes 22.1221
lfemur -32.7659 -3.74124 -18.4509
ltibia 54.7109
lfoot -13.7514 0.395569
ltoes 22.2617
159
root 30.6981 16.0157 0.813138 -18.436 -83.0971 28.8261
lowerback -1.65546 -0.631539 -4.9699
upperback -1.17115 -0.787777 1.61556
thorax -0.188018 -0.36664 4.44522
lowerneck 0.0880159 9.77417 4.71784
upperneck 2.09219 13.3324 -13.5007
head 1.84901 6.51673 -4.45682
rclavicle -7.45443e-015 4.77083e-015
rhumerus -53.8904 24.6483 -81.6154
rradius 65.4473
rwrist 3.29015
rhand -6.13129 -47.0908
rfingers 7.12502
rthumb 19.7061 -76.1119
lclavicle -7.45443e-015 4.77083e-015
lhumerus -58.0525 -15.4152 72.9791
lradius 60.98
lwrist -30.1104
lhand -23.0379 -25.0091
lfingers 7.12502
lthumb 3.40646 4.94345
rfemur -14.6791 6.58991 20.8023
rtibia 26.5383
rfoot -27.7236 -24.8399
rtoes 21.7554
lfemur -32.0293 -3.88908 -18.4861
ltibia 54.3647
lfoot -13.9374 0.746464
ltoes 22.3756
